<?xml version="1.0" encoding="UTF-8" standalone="no"?>
<svg
   xmlns:dc="http://purl.org/dc/elements/1.1/"
   xmlns:cc="http://creativecommons.org/ns#"
   xmlns:rdf="http://www.w3.org/1999/02/22-rdf-syntax-ns#"
   xmlns:svg="http://www.w3.org/2000/svg"
   xmlns="http://www.w3.org/2000/svg"
   viewBox="0 0 1056 816"
   height="816"
   width="1056"
   xml:space="preserve"
   id="svg64"
   version="1.1"><metadata
     id="metadata70"><rdf:RDF><cc:Work
         rdf:about=""><dc:format>image/svg+xml</dc:format><dc:type
           rdf:resource="http://purl.org/dc/dcmitype/StillImage" /><dc:title></dc:title></cc:Work></rdf:RDF></metadata><defs
     id="defs68"><clipPath
       id="clipPath80"
       clipPathUnits="userSpaceOnUse"><path
         id="path78"
         d="M 0,612 H 792 V 0 H 0 Z" /></clipPath><clipPath
       id="clipPath88"
       clipPathUnits="userSpaceOnUse"><path
         id="path86"
         d="M 0,446.621 H 792 V 101.622 H 0 Z" /></clipPath></defs><g
     transform="matrix(1.3333333,0,0,-1.3333333,0,816)"
     id="g72"><path
       id="path142"
       d="m 219.60196,111.84455 c -12.72889,4.19061 -21.76269,14.55797 -24.57972,28.20826 -3.03747,14.71843 5.48266,31.23891 19.71567,38.22855 5.1343,2.52138 7.15266,2.9026 15.3435,2.898 7.40778,-0.004 10.47177,-0.48514 14.27961,-2.2416 l 4.84811,-2.23632 12.34345,12.3757 12.34345,12.3757 -4.45915,5.06111 c -20.0157,22.71768 -35.05993,58.30411 -38.35653,90.73064 l -0.71913,7.07363 h -17.44701 -17.44702 l -1.9309,-5.43657 c -2.72943,-7.6849 -11.7362,-16.50956 -20.05165,-19.64624 -7.80241,-2.94315 -19.36882,-2.65856 -26.71488,0.65734 -11.21539,5.06246 -20.1959,17.43864 -21.59172,29.75591 -1.5691,13.84636 6.69291,28.40966 20.0198,35.28854 7.52255,3.88287 19.7006,4.46784 27.98185,1.34409 9.90737,-3.73713 19.12867,-13.85936 22.23737,-24.40999 0.48604,-1.64956 2.25896,-1.8339 17.63715,-1.8339 h 17.0968 l 1.31007,11.02995 c 3.54736,29.8666 14.37623,57.11431 31.86069,80.1682 3.61986,4.77291 7.2496,9.58058 8.06611,10.6837 1.37191,1.8535 0.57678,2.91877 -10.47945,14.03994 -12.90142,12.97719 -12.03339,12.5908 -20.87154,9.29032 -6.25281,-2.33501 -18.56425,-1.69446 -25.33477,1.31816 -6.87444,3.05883 -13.93407,9.93781 -17.33206,16.88852 -2.45981,5.03159 -2.89298,7.24171 -2.90484,14.82094 -0.0119,7.6168 0.40437,9.75933 2.87293,14.78596 3.90269,7.94688 12.2853,15.70396 20.19439,18.68742 5.06023,1.90883 7.77386,2.27753 14.14736,1.92226 13.73724,-0.76574 24.74129,-8.44833 30.5544,-21.33186 3.36952,-7.46784 3.31748,-19.85369 -0.11562,-27.51413 l -2.50554,-5.59077 12.06078,-12.06079 12.06079,-12.06079 11.72754,8.87875 c 32.77268,24.81173 72.15349,36.52898 112.02553,33.33174 37.41031,-2.99984 64.21765,-14.07351 97.13925,-40.12664 2.20594,-1.74571 2.49564,-1.53504 14.65869,10.65979 l 12.40828,12.4407 -2.45957,5.58335 c -3.64438,8.27289 -3.478,19.13424 0.42453,27.71328 6.76508,14.87187 23.7843,24.24441 38.93777,21.44314 22.29577,-4.12159 34.8109,-26.44912 26.72683,-47.68177 -3.2888,-8.63796 -12.97907,-17.82991 -22.29057,-21.1443 -6.52099,-2.32111 -17.06956,-2.01747 -24.3339,0.70047 l -6.06997,2.27106 -12.41828,-12.43803 -12.41829,-12.43802 6.73862,-8.38356 c 19.10215,-23.76507 31.46878,-53.31619 35.20189,-84.11787 l 1.29939,-10.72118 h 17.6858 c 15.90981,0 17.7478,0.18416 18.30316,1.83391 3.29132,9.7771 9.63644,17.35094 18.40587,21.97015 4.98677,2.62674 6.58027,2.91702 16.01715,2.91774 9.03043,7e-4 11.13152,-0.34502 15.19521,-2.50028 10.21585,-5.41816 16.57463,-13.16316 19.41144,-23.64316 4.47781,-16.5424 -3.92651,-33.61494 -20.33362,-41.30574 -8.43142,-3.95221 -20.14588,-3.9372 -28.6262,0.0367 -9.36004,4.38614 -16.54639,12.67096 -20.06985,23.13762 -0.55527,1.64947 -2.39097,1.83391 -18.25314,1.83391 h -17.63576 l -1.211,-10.74144 c -3.39223,-30.08885 -16.75943,-62.61091 -34.35039,-83.57364 -3.14382,-3.7464 -6.02274,-7.44459 -6.39762,-8.21822 -0.43911,-0.90618 3.70496,-5.80459 11.64863,-13.76901 l 12.3302,-12.36241 4.84811,2.24082 c 7.31617,3.38158 22.74813,3.19625 29.99879,-0.36027 6.70851,-3.29058 14.07186,-10.64349 17.25806,-17.23359 3.70656,-7.66632 4.12877,-19.05125 1.01325,-27.32129 -3.27899,-8.70392 -12.71016,-18.13546 -21.41514,-21.41594 -8.07309,-3.04236 -18.4141,-2.62556 -26.19864,1.05595 -6.99538,3.30829 -14.68683,11.16895 -18.14185,18.54098 -3.83901,8.19136 -3.98491,21.40854 -0.31383,28.42842 l 2.40693,4.60255 -12.39417,12.42656 c -6.8168,6.8346 -12.80076,12.42655 -13.2977,12.42655 -0.49693,0 -3.09797,-1.93352 -5.78008,-4.29671 -17.58262,-15.49194 -45.421,-28.93936 -72.46903,-35.00639 -12.28746,-2.75615 -45.20187,-3.34828 -58.89016,-1.05944 -28.38079,4.74561 -55.32708,16.62276 -76.50651,33.72184 l -8.47948,6.84587 -12.1346,-12.1346 -12.13459,-12.13459 1.4033,-3.42519 c 0.77181,-1.88385 2.08552,-5.78305 2.91937,-8.6649 4.1932,-14.49222 -4.64358,-32.82246 -19.27413,-39.98053 -6.85548,-3.35407 -19.15791,-4.3551 -25.96827,-2.11299 z m 164.26541,64.61005 2.88186,0.0143 v 34.05822 c 0,18.73202 -0.35369,34.05263 -0.78597,34.0458 -2.9042,-0.0459 -32.11117,-7.55425 -36.14398,-9.29167 -4.57505,-1.97101 -4.89114,-2.34128 -3.9999,-4.68541 2.26546,-5.95864 10.47024,-21.26229 20.2199,-37.7144 9.20897,-15.53974 10.72487,-17.57382 12.70161,-17.04343 1.23455,0.33126 3.54147,0.60872 5.12648,0.61659 z m 34.52815,3.9441 c 5.45898,5.67961 14.16589,19.5483 23.37071,37.22577 l 8.02971,15.42071 -2.96685,1.13151 c -6.41508,2.4466 -20.7128,6.23063 -29.42926,7.78873 -5.04225,0.90133 -10.22877,1.86852 -11.5256,2.14931 l -2.35788,0.51054 V 210.54708 176.4689 h 5.55102 c 5.04438,0 5.89575,0.35866 9.32815,3.9298 z m -62.03671,2.84579 c 0,0.26834 -2.5759,4.43969 -5.72422,9.26965 -3.14833,4.82996 -8.64864,14.39558 -12.22291,21.25695 -3.57428,6.86136 -6.6096,12.62402 -6.74516,12.80589 -0.36827,0.4941 -20.27378,-9.17229 -24.96975,-12.12564 l -4.07641,-2.56371 3.02847,-2.4934 c 11.72626,-9.65443 28.60921,-19.31271 41.82891,-23.9292 7.77813,-2.71622 8.88107,-2.99199 8.88107,-2.22054 z m 97.40743,5.17299 c 11.34149,4.60846 33.58572,20.64009 33.58572,24.20553 0,2.23162 -8.8152,9.37201 -16.65855,13.49358 -3.97469,2.08864 -7.50778,3.79752 -7.85134,3.79752 -0.34355,0 -3.51338,-5.76269 -7.04406,-12.80596 -5.78499,-11.54033 -12.8653,-22.9732 -18.67777,-30.15979 -1.16542,-1.44093 -2.12942,-2.93172 -2.14223,-3.31289 -0.0361,-1.0718 11.78871,1.93785 18.78823,4.78201 z m -142.64495,42.74226 c 9.60684,4.71969 17.5899,8.65452 17.74015,8.74406 0.15025,0.0896 -0.39937,2.06901 -1.22137,4.39882 -6.2522,17.7206 -12.14141,43.65919 -12.16542,53.58171 -0.008,3.25046 -0.29867,6.97096 -0.64621,8.26779 l -0.63188,2.35788 h -26.21181 -26.21182 l 0.73894,-7.5976 c 1.65974,-17.06508 6.44311,-33.30979 15.26201,-51.83097 5.25404,-11.03441 14.29636,-26.50294 15.49261,-26.50294 0.21331,0 8.24797,3.86157 17.8548,8.58125 z m 192.5051,-2.03159 c 13.29329,17.67964 23.70375,47.77519 24.83116,71.78425 l 0.35677,7.5976 h -24.3515 -24.35149 l -0.52317,-3.40582 c -0.28773,-1.8732 -0.81155,-6.94264 -1.16402,-11.26541 -0.85411,-10.47495 -2.9052,-19.71802 -8.08051,-36.41431 -2.36689,-7.63593 -4.10615,-14.0396 -3.86502,-14.23038 0.24114,-0.19078 4.44682,-2.78062 9.34596,-5.75519 4.89914,-2.97458 11.5012,-7.50286 14.67123,-10.06284 3.17004,-2.56 6.3132,-4.68671 6.98481,-4.72604 0.67161,-0.0393 3.4372,2.87583 6.14578,6.47814 z m -150.41041,21.22123 c 12.02686,4.05024 24.11536,6.81131 29.82126,6.81131 h 3.71199 V 282.83534 308.51 h -29.49708 -29.49706 l 0.67587,-8.79275 c 0.83387,-10.84833 3.78504,-25.77957 7.51312,-38.01216 2.50791,-8.22893 5.26158,-15.02386 6.08848,-15.02386 0.16014,0 5.19268,1.65068 11.18342,3.66815 z m 103.03534,5.83215 c 5.12732,14.76756 9.19982,32.41045 9.84141,42.63498 L 466.701,308.51 h -31.59233 -31.59232 v -25.46472 -25.46473 l 9.16952,-1.30348 c 9.03716,-1.28467 30.78363,-6.38243 35.89212,-8.41376 1.44093,-0.57297 3.0664,-0.92448 3.61219,-0.78114 0.54578,0.14334 2.37329,4.23804 4.06114,9.09936 z m -140.75903,72.50142 c 0.006,13.36408 4.88367,35.50745 11.04769,50.15248 2.60477,6.18867 2.63213,8.27046 0.10873,8.27046 -2.03395,0 -18.45728,10.36947 -24.41674,15.41639 l -5.39739,4.57092 -6.94035,-8.67436 c -8.36419,-10.45393 -14.9845,-22.99967 -19.30823,-36.58979 -3.29679,-10.36232 -6.91208,-26.9633 -7.78896,-35.76597 l -0.49585,-4.97774 h 26.59388 26.59388 l 0.003,7.59761 z m 71.25694,17.55308 v 25.15069 h -4.75994 c -6.71293,0 -19.12534,2.72992 -29.14166,6.40927 -4.6971,1.72541 -9.30512,3.38628 -10.24002,3.69081 -1.305,0.42509 -2.43422,-1.23123 -4.86169,-7.13108 -5.85902,-14.24001 -9.66214,-32.60451 -9.67544,-46.72072 l -0.006,-6.54966 h 29.34246 29.34247 z m 79.64383,-20.02673 c 0,7.70023 -2.79364,20.91367 -6.9404,32.82706 -3.58879,10.31028 -9.29232,22.82981 -10.40062,22.82981 -0.29905,0 -2.93114,-1.2098 -5.8491,-2.68844 -7.24533,-3.67149 -19.51191,-6.66653 -30.51707,-7.45113 l -9.16952,-0.65373 v -24.99376 -24.99377 h 31.43835 31.43836 z m 61.82877,0.50247 c 0,20.93933 -10.69887,50.47843 -25.30239,69.85876 -8.65858,11.49081 -8.03634,11.25956 -14.23083,5.28886 -4.13869,-3.98917 -20.54248,-14.2185 -25.7655,-16.06726 -0.46755,-0.16549 0.56532,-3.45558 2.29526,-7.31129 6.9609,-15.51451 13.68714,-40.68513 13.72735,-51.36981 l 0.0226,-6.02569 h 24.62672 24.62671 z m -141.4726,92.35645 v 34.05823 h -5.51604 -5.51602 l -6.98632,-11.26542 c -7.41392,-11.95493 -22.55297,-41.31874 -23.06845,-44.74372 -0.65972,-4.38346 21.40067,-11.84346 35.58511,-12.03357 l 5.50172,-0.0737 z m 38.83644,-31.84362 c 11.3417,2.83968 19.84848,6.77698 19.84848,9.18669 0,2.47972 -12.41991,27.36085 -17.84845,35.75625 -2.42246,3.74641 -6.99627,9.99478 -10.16403,13.88527 -5.3182,6.53157 -6.07167,7.07364 -9.83244,7.07364 h -4.07288 V 419.06822 385.01 h 6.61212 c 3.63666,0 10.5924,0.99657 15.4572,2.2146 z m -87.37251,24.78315 c 3.56459,7.34148 9.85727,18.68765 13.98376,25.2137 4.12648,6.52607 7.32535,12.0429 7.10861,12.25965 -0.86699,0.86699 -25.90651,-12.49768 -35.33698,-18.86086 -10.0652,-6.79147 -16.8632,-12.39297 -16.86313,-13.89512 5e-5,-1.33046 22.29418,-18.03383 24.1027,-18.0584 0.28819,-0.005 3.44045,5.99955 7.00504,13.34103 z M 466.14695,401.9733 c 8.33352,4.63144 17.14625,10.64105 19.58247,13.35378 2.04228,2.27405 2.04074,2.28113 -1.04794,4.82183 -6.14245,5.05269 -20.0335,13.91965 -28.2439,18.02867 -11.92716,5.96915 -23.68092,11.00425 -24.28284,10.40233 -0.28268,-0.28268 1.61387,-3.12638 4.21455,-6.31931 2.60068,-3.19293 6.01182,-7.99513 7.58029,-10.67154 2.45401,-4.18744 12.37727,-25.67789 14.37059,-31.12186 0.87229,-2.38232 0.8079,-2.39471 7.82678,1.5061 z"
       style="fill:#FFFFFF;stroke:none;stroke-width:1.04795" /></g></svg>
